<svg width="585" height="263" viewBox="0 0 585 263" fill="none" xmlns="http://www.w3.org/2000/svg">
<g clip-path="url(#clip0_217_26)">
<path d="M281.72 78.2299H326.64C325.72 90.2299 322.95 98.8499 316.18 110.84L328.79 117.61C341.1 88.6899 359.25 75.1499 384.48 75.1499C419.25 75.1499 439.55 101 439.55 144.99V233.6H394.01V152.99C394.01 127.45 382.63 113.91 360.78 113.91C338.93 113.91 327.24 127.45 327.24 152.99V233.6H281.7V78.2299H281.72Z" fill="black"/>
<path d="M584.59 222.51L546.06 262.58C545.4 263.27 544.23 262.8 544.23 261.84V252.83C544.23 247.15 539.46 242.62 533.78 242.97C532.48 243.04 531.15 243.08 529.79 243.08C518.22 243.08 508.27 240.23 500.13 234.79C483.77 223.9 474.72 202.61 474.72 173.24V79.3899H520.26V165.23C520.26 182.68 525.73 194.68 536.06 200.53C539.71 202.59 544.23 199.98 544.23 195.8V183.17C544.23 182.2 545.4 181.74 546.06 182.43L584.59 222.5V222.51Z" fill="black"/>
<path d="M236.19 78.2301V233.61H191.27C192.5 221.92 195.27 213.3 202.04 201L189.12 194.23C177.12 223.15 159.27 236.69 134.04 236.69C100.82 236.69 80.81 213.1 79.09 172.64C79.01 170.75 78.96 168.82 78.96 166.85V150.36C78.96 133.7 73.98 122.03 64.55 115.91C60.42 113.24 54.98 116.16 54.98 121.07V136.71C54.98 138.49 52.9 139.42 51.57 138.26L0 93.0901L51.58 47.9101C52.91 46.7501 54.99 47.6901 54.99 49.4601V62.3301C54.99 68.2501 59.95 72.9201 65.87 72.6101C67.04 72.5401 68.22 72.5101 69.42 72.5101C78.99 72.5101 87.46 74.4701 94.72 78.2301C113.82 88.1201 124.5 110.47 124.5 142.35V158.84C124.5 184.38 136.19 198.22 157.73 198.22C179.27 198.22 190.65 184.37 190.65 158.84V78.2301H236.19Z" fill="black"/>
<path d="M79.09 172.64H78.96V166.85C78.96 168.82 79 170.75 79.09 172.64Z" fill="black"/>
<path d="M497.02 59.74C513.517 59.74 526.89 46.3667 526.89 29.87C526.89 13.3733 513.517 0 497.02 0C480.523 0 467.15 13.3733 467.15 29.87C467.15 46.3667 480.523 59.74 497.02 59.74Z" fill="#FFAD17"/>
</g>
<defs>
<clipPath id="clip0_217_26">
<rect width="584.59" height="262.9" fill="white"/>
</clipPath>
</defs>
</svg>
